PathFileType   4   (X/Y/Z)
DataRate	CameraRate	NumFrames	NumMarkers	Units	OrigDataRate	OrigDataStartFrame	OrigNumFrames
120.0	120.0	7	37	mm	120.0	1	136
Frame#	Time	midhip	hip_r	hip_l	knee_r	knee_l	ankle_r	ankle_l	midasis	asis_r	asis_l	psis_r	psis_l	epicondLat_r	epicondLat_l	epicondMed_r	epicondMed_l	malleolusLat_r	malleolusLat_l	malleolusMedv_r	malleolusMedv_l	neck	subclavicle_r	subclavicle_l	sternalnotch	xyphoidprocess	thighwand_r	thighwand_l	upperleg1_r	upperleg1_l	upperleg2_r	upperleg2_l	shankwand_r	shankwand_l	lowerleg1_r	lowerleg1_l	toe_r	toe_l
 	 	X1	Y1	Z1	X2	Y2	Z2	X3	Y3	Z3	X4	Y4	Z4	X5	Y5	Z5	X6	Y6	Z6	X7	Y7	Z7	X8	Y8	Z8	X9	Y9	Z9	X10	Y10	Z10	X11	Y11	Z11	X12	Y12	Z12	X13	Y13	Z13	X14	Y14	Z14	X15	Y15	Z15	X16	Y16	Z16	X17	Y17	Z17	X18	Y18	Z18	X19	Y19	Z19	X20	Y20	Z20	X21	Y21	Z21	X22	Y22	Z22	X23	Y23	Z23	X24	Y24	Z24	X25	Y25	Z25	X26	Y26	Z26	X27	Y27	Z27	X28	Y28	Z28	X29	Y29	Z29	X30	Y30	Z30	X31	Y31	Z31	X32	Y32	Z32	X33	Y33	Z33	X34	Y34	Z34	X35	Y35	Z35	X36	Y36	Z36	X37	Y37	Z37

	1	0.13333	72.299	672.532	-216.392	64.273	684.093	-153.338	64.424	675.485	-278.872	180.074	387.160	-191.494	-12.229	368.263	-271.537	192.723	55.900	-190.245	-250.385	146.339	-265.774	130.482	742.700	-220.339	130.369	749.169	-126.001	130.596	736.232	-314.677	-14.684	782.895	-199.344	-17.366	776.826	-253.636	185.744	382.946	-141.490	-20.755	369.214	-320.795	176.274	382.377	-241.400	6.858	359.669	-213.458	191.621	55.985	-156.763	-257.642	153.269	-298.783	189.721	65.867	-216.189	-249.308	157.951	-238.212	20.752	1127.768	-216.251	99.579	1081.241	-150.910	100.667	1085.308	-279.914	94.548	1071.838	-218.398	115.918	929.468	-221.953	163.516	458.116	-54.338	140.716	440.018	-330.872	171.331	531.201	-116.404	98.951	505.743	-261.545	205.852	458.054	-141.000	68.034	424.331	-250.846	184.663	157.042	-81.950	-124.661	154.408	-318.052	185.261	213.288	-141.227	-120.592	234.065	-293.367	289.761	39.030	-197.226	-229.279	56.754	-256.956
	2	0.14167	80.524	673.681	-215.927	72.517	685.112	-152.865	72.637	676.718	-278.414	185.839	387.373	-190.987	3.913	367.123	-273.923	193.067	55.796	-190.181	-238.652	150.579	-267.913	138.681	743.863	-219.785	138.591	750.172	-125.418	138.771	737.554	-314.152	-6.439	784.046	-198.564	-9.306	777.915	-252.919	190.880	382.883	-140.940	-4.919	368.370	-323.121	182.176	382.648	-240.894	24.084	357.177	-216.807	191.735	55.849	-156.708	-245.675	157.529	-300.968	189.893	65.785	-216.243	-237.480	163.136	-240.560	28.849	1129.001	-215.962	107.636	1082.654	-150.405	108.719	1086.560	-279.664	102.736	1073.170	-218.101	124.084	930.804	-221.374	168.314	457.976	-53.751	154.691	442.505	-333.449	177.789	530.753	-115.110	111.895	506.277	-263.614	211.502	457.354	-139.644	83.258	423.922	-253.741	185.914	156.929	-81.779	-112.729	155.626	-319.920	187.454	213.058	-141.132	-106.744	235.098	-295.459	289.907	38.846	-197.131	-219.726	60.380	-258.611
	3	0.15000	88.466	674.824	-215.507	80.579	686.087	-152.455	80.692	677.946	-278.020	191.184	387.500	-190.455	20.299	366.201	-276.303	193.396	55.706	-190.115	-226.305	154.809	-269.899	146.734	744.979	-219.260	146.650	751.100	-124.856	146.819	738.858	-313.664	1.577	785.223	-197.829	-1.344	779.012	-252.241	195.576	382.753	-140.371	11.046	367.723	-325.415	188.238	382.930	-240.424	41.554	355.289	-219.867	191.810	55.730	-156.653	-233.073	161.701	-303.019	190.001	65.738	-216.287	-225.007	168.172	-242.745	36.888	1130.236	-215.664	115.816	1083.975	-150.295	116.762	1087.783	-279.325	110.809	1074.452	-217.829	132.300	932.083	-221.057	172.722	457.778	-53.183	168.535	445.171	-336.271	183.401	530.576	-113.956	125.125	507.016	-265.977	216.898	456.790	-138.464	98.664	423.877	-256.683	186.946	156.804	-81.603	-100.165	156.899	-321.525	189.264	212.830	-141.046	-92.409	236.233	-297.262	290.028	38.695	-197.015	-208.830	64.124	-260.580
	4	0.15833	96.171	675.964	-215.134	88.471	687.033	-152.094	88.619	679.163	-277.676	196.108	387.555	-189.916	36.832	365.544	-278.647	193.690	55.631	-190.047	-213.347	158.911	-271.724	154.653	746.060	-218.753	154.542	751.979	-124.304	154.764	740.141	-313.202	9.378	786.414	-197.191	6.534	780.100	-251.645	199.887	382.585	-139.803	27.086	367.305	-327.656	194.642	382.271	-239.304	58.621	354.239	-222.544	191.861	55.631	-156.597	-219.868	165.695	-304.916	190.114	65.795	-216.271	-211.845	172.871	-244.715	44.814	1131.475	-215.394	123.910	1085.262	-150.133	124.722	1088.936	-279.113	118.772	1075.691	-217.592	140.372	933.302	-220.727	176.877	457.596	-52.645	182.245	448.019	-339.209	187.363	530.571	-113.267	138.461	508.054	-268.442	221.862	456.327	-137.368	113.843	424.263	-259.481	187.858	156.677	-81.422	-86.995	158.225	-322.949	190.944	212.733	-140.862	-77.754	237.480	-298.767	290.134	38.571	-196.882	-196.602	67.855	-262.882
	5	0.16667	103.705	677.100	-214.812	96.210	687.959	-151.774	96.445	680.365	-277.373	200.627	387.551	-189.391	53.415	365.189	-280.934	193.934	55.572	-189.979	-199.778	162.757	-273.394	162.451	747.118	-218.256	162.274	752.832	-123.757	162.628	741.405	-312.755	17.007	787.599	-196.687	14.330	781.171	-251.159	203.868	382.400	-139.259	43.147	367.144	-329.829	198.608	382.830	-238.999	75.603	353.655	-224.915	191.899	55.554	-156.541	-206.093	169.417	-306.651	190.263	65.934	-216.198	-197.874	176.931	-246.442	52.707	1132.667	-215.133	131.928	1086.519	-149.942	132.449	1090.105	-279.001	126.649	1076.893	-217.409	148.243	934.512	-220.505	180.889	457.474	-52.144	195.835	451.055	-342.134	193.702	530.407	-112.373	151.611	509.345	-270.815	226.439	455.965	-136.339	128.902	425.093	-262.081	188.733	156.551	-81.239	-73.258	159.599	-324.306	192.665	212.714	-140.550	-62.755	238.863	-300.158	290.232	38.470	-196.737	-183.091	71.450	-265.518
	6	0.17500	111.138	678.227	-214.554	103.818	688.869	-151.492	104.192	681.555	-277.108	204.771	387.495	-188.900	69.959	365.154	-283.145	194.122	55.529	-189.919	-185.596	166.214	-274.929	170.144	748.165	-217.768	169.862	753.670	-123.218	170.425	742.659	-312.319	24.520	788.761	-196.333	22.042	782.219	-250.797	207.570	382.209	-138.756	59.184	367.251	-331.925	202.098	383.357	-238.583	92.900	353.344	-227.020	191.934	55.496	-156.490	-191.777	172.778	-308.230	190.437	66.098	-216.103	-183.144	180.237	-247.934	60.566	1133.829	-214.861	139.900	1087.718	-149.785	139.990	1091.269	-278.882	134.443	1078.058	-217.285	155.928	935.686	-220.378	184.836	457.433	-51.683	209.325	454.292	-344.934	199.479	530.349	-111.446	164.476	510.965	-273.067	230.682	455.647	-135.389	144.008	426.337	-264.477	189.628	156.428	-81.062	-58.997	161.014	-325.717	194.424	212.708	-140.154	-47.460	240.359	-301.643	290.325	38.386	-196.590	-168.375	74.799	-268.468
	7	0.18333	118.525	679.338	-214.373	111.316	689.761	-151.249	111.874	682.734	-276.881	208.578	387.394	-188.463	86.388	365.439	-285.265	194.258	55.497	-189.877	-170.803	169.164	-276.351	177.743	749.204	-217.293	177.323	754.496	-122.692	178.163	743.912	-311.894	31.971	789.885	-196.128	29.666	783.243	-250.556	211.037	382.013	-138.311	75.158	367.627	-333.938	205.353	383.735	-238.102	109.975	353.493	-229.208	191.974	55.453	-156.455	-176.941	175.695	-309.666	190.599	66.256	-215.984	-167.846	182.863	-249.257	68.328	1134.969	-214.543	147.804	1088.895	-149.656	147.468	1092.313	-278.830	142.145	1079.186	-217.207	163.495	936.780	-220.179	188.767	457.470	-51.266	222.737	457.738	-347.520	204.682	530.337	-110.573	177.242	512.980	-275.154	234.707	455.316	-134.580	158.945	427.927	-266.788	190.564	156.309	-80.904	-44.253	162.455	-327.287	196.191	212.705	-139.699	-31.863	241.947	-303.315	290.413	38.316	-196.449	-152.550	77.819	-271.692
